<mxfile host="Electron" agent="Mozilla/5.0 (Windows NT 10.0; Win64; x64) AppleWebKit/537.36 (KHTML, like Gecko) draw.io/24.7.8 Chrome/128.0.6613.36 Electron/32.0.1 Safari/537.36" version="24.7.8">
  <diagram name="Page-1" id="LUQoQVU-C6LyRIgGUkAn">
    <mxGraphModel dx="197" dy="532" grid="1" gridSize="10" guides="1" tooltips="1" connect="1" arrows="1" fold="1" page="1" pageScale="1" pageWidth="1169" pageHeight="827" math="0" shadow="0">
      <root>
        <mxCell id="0" />
        <mxCell id="1" parent="0" />
        <mxCell id="zsijtZiIFNG7NVC0nFPb-6" style="edgeStyle=orthogonalEdgeStyle;rounded=0;orthogonalLoop=1;jettySize=auto;html=1;exitX=0.5;exitY=1;exitDx=0;exitDy=0;curved=1;endArrow=none;endFill=0;" edge="1" parent="1" source="zsijtZiIFNG7NVC0nFPb-2" target="zsijtZiIFNG7NVC0nFPb-3">
          <mxGeometry relative="1" as="geometry" />
        </mxCell>
        <mxCell id="zsijtZiIFNG7NVC0nFPb-8" style="edgeStyle=orthogonalEdgeStyle;rounded=0;orthogonalLoop=1;jettySize=auto;html=1;exitX=1;exitY=0.5;exitDx=0;exitDy=0;entryX=0;entryY=0.5;entryDx=0;entryDy=0;curved=1;endArrow=none;endFill=0;" edge="1" parent="1" source="zsijtZiIFNG7NVC0nFPb-2" target="zsijtZiIFNG7NVC0nFPb-5">
          <mxGeometry relative="1" as="geometry" />
        </mxCell>
        <mxCell id="zsijtZiIFNG7NVC0nFPb-2" value="0" style="ellipse;whiteSpace=wrap;html=1;aspect=fixed;" vertex="1" parent="1">
          <mxGeometry x="40" y="170" width="30" height="30" as="geometry" />
        </mxCell>
        <mxCell id="zsijtZiIFNG7NVC0nFPb-10" style="edgeStyle=orthogonalEdgeStyle;rounded=0;orthogonalLoop=1;jettySize=auto;html=1;exitX=1;exitY=0.5;exitDx=0;exitDy=0;entryX=0;entryY=0.5;entryDx=0;entryDy=0;endArrow=none;endFill=0;curved=1;" edge="1" parent="1" source="zsijtZiIFNG7NVC0nFPb-3" target="zsijtZiIFNG7NVC0nFPb-4">
          <mxGeometry relative="1" as="geometry" />
        </mxCell>
        <mxCell id="zsijtZiIFNG7NVC0nFPb-11" style="rounded=0;orthogonalLoop=1;jettySize=auto;html=1;exitX=1;exitY=0;exitDx=0;exitDy=0;endArrow=none;endFill=0;entryX=0;entryY=1;entryDx=0;entryDy=0;" edge="1" parent="1" source="zsijtZiIFNG7NVC0nFPb-3" target="zsijtZiIFNG7NVC0nFPb-5">
          <mxGeometry relative="1" as="geometry">
            <mxPoint x="69.99660171779819" y="249.4833982822018" as="sourcePoint" />
            <mxPoint x="148.78339828220174" y="190.69660171779816" as="targetPoint" />
          </mxGeometry>
        </mxCell>
        <mxCell id="zsijtZiIFNG7NVC0nFPb-3" value="1" style="ellipse;whiteSpace=wrap;html=1;aspect=fixed;" vertex="1" parent="1">
          <mxGeometry x="40" y="250" width="30" height="30" as="geometry" />
        </mxCell>
        <mxCell id="zsijtZiIFNG7NVC0nFPb-12" style="edgeStyle=orthogonalEdgeStyle;rounded=0;orthogonalLoop=1;jettySize=auto;html=1;exitX=0.5;exitY=0;exitDx=0;exitDy=0;entryX=0.5;entryY=1;entryDx=0;entryDy=0;endArrow=none;endFill=0;curved=1;" edge="1" parent="1" source="zsijtZiIFNG7NVC0nFPb-4" target="zsijtZiIFNG7NVC0nFPb-5">
          <mxGeometry relative="1" as="geometry" />
        </mxCell>
        <mxCell id="zsijtZiIFNG7NVC0nFPb-4" value="2" style="ellipse;whiteSpace=wrap;html=1;aspect=fixed;" vertex="1" parent="1">
          <mxGeometry x="140" y="250" width="30" height="30" as="geometry" />
        </mxCell>
        <mxCell id="zsijtZiIFNG7NVC0nFPb-5" value="3" style="ellipse;whiteSpace=wrap;html=1;aspect=fixed;" vertex="1" parent="1">
          <mxGeometry x="140" y="170" width="30" height="30" as="geometry" />
        </mxCell>
        <mxCell id="zsijtZiIFNG7NVC0nFPb-13" value="11" style="text;html=1;align=center;verticalAlign=middle;whiteSpace=wrap;rounded=0;" vertex="1" parent="1">
          <mxGeometry x="80" y="160" width="40" height="20" as="geometry" />
        </mxCell>
        <mxCell id="zsijtZiIFNG7NVC0nFPb-15" value="14" style="text;html=1;align=center;verticalAlign=middle;whiteSpace=wrap;rounded=0;" vertex="1" parent="1">
          <mxGeometry x="70" y="210" width="40" height="20" as="geometry" />
        </mxCell>
        <mxCell id="zsijtZiIFNG7NVC0nFPb-16" value="25" style="text;html=1;align=center;verticalAlign=middle;whiteSpace=wrap;rounded=0;" vertex="1" parent="1">
          <mxGeometry x="150" y="220" width="40" height="20" as="geometry" />
        </mxCell>
        <mxCell id="zsijtZiIFNG7NVC0nFPb-17" value="18" style="text;html=1;align=center;verticalAlign=middle;whiteSpace=wrap;rounded=0;" vertex="1" parent="1">
          <mxGeometry x="20" y="220" width="40" height="20" as="geometry" />
        </mxCell>
        <mxCell id="zsijtZiIFNG7NVC0nFPb-18" value="9" style="text;html=1;align=center;verticalAlign=middle;whiteSpace=wrap;rounded=0;" vertex="1" parent="1">
          <mxGeometry x="80" y="270" width="40" height="20" as="geometry" />
        </mxCell>
      </root>
    </mxGraphModel>
  </diagram>
</mxfile>
